<svg width="8" height="10" viewBox="0 0 8 10" fill="none" xmlns="http://www.w3.org/2000/svg">
<path d="M0.997862 5.01963C0.997101 5.15062 1.02233 5.28046 1.07209 5.40172C1.12186 5.52298 1.19518 5.63327 1.28786 5.72627L5.28786 9.7073C5.3811 9.8001 5.49179 9.87371 5.61361 9.92393C5.73543 9.97415 5.866 10 5.99786 10C6.12972 10 6.26029 9.97415 6.38211 9.92393C6.50393 9.87371 6.61462 9.8001 6.70786 9.7073C6.8011 9.61451 6.87506 9.50434 6.92552 9.3831C6.97598 9.26185 7.00195 9.1319 7.00195 9.00067C7.00195 8.86943 6.97598 8.73949 6.92552 8.61824C6.87506 8.497 6.8011 8.38683 6.70786 8.29403L3.39786 5.01963L6.57786 1.73528C6.68015 1.64372 6.76236 1.53215 6.81935 1.40753C6.87633 1.28291 6.90687 1.14793 6.90905 1.01103C6.91123 0.874125 6.885 0.738248 6.83201 0.611895C6.77902 0.48554 6.7004 0.371429 6.60108 0.276695C6.50176 0.18196 6.38386 0.108641 6.25477 0.0613232C6.12567 0.0140047 5.98816 -0.00629328 5.85082 0.0016966C5.71348 0.00968649 5.57928 0.0457945 5.4566 0.107759C5.33393 0.169724 5.22542 0.256214 5.13786 0.361821L1.27786 4.34286C1.10155 4.52486 1.00144 4.76683 0.997862 5.01963Z" fill="white"/>
</svg>
