<svg width="17" height="16" viewBox="0 0 17 16" fill="none" xmlns="http://www.w3.org/2000/svg">
<path d="M5.21947 7.99982C5.03181 7.83105 4.78729 7.73949 4.53494 7.74349C4.28259 7.74748 4.04109 7.84675 3.85888 8.02137C3.67666 8.19599 3.56721 8.43306 3.55249 8.68501C3.53776 8.93695 3.61884 9.18515 3.77947 9.37982L5.99947 11.7098C6.09242 11.8073 6.2041 11.885 6.32783 11.9383C6.45155 11.9916 6.58476 12.0193 6.71947 12.0198C6.85346 12.0206 6.98624 11.9944 7.10992 11.9429C7.23361 11.8914 7.34568 11.8155 7.43947 11.7198L14.2195 4.71982C14.3114 4.62526 14.3838 4.51353 14.4325 4.391C14.4813 4.26847 14.5054 4.13753 14.5036 4.00567C14.5017 3.87382 14.4739 3.74361 14.4217 3.6225C14.3695 3.50139 14.294 3.39174 14.1995 3.29982C14.1049 3.20789 13.9932 3.13549 13.8707 3.08674C13.7481 3.038 13.6172 3.01387 13.4853 3.01572C13.3535 3.01758 13.2233 3.04539 13.1022 3.09757C12.981 3.14974 12.8714 3.22526 12.7795 3.31982L6.72947 9.57982L5.21947 7.99982Z" fill="#FBF8F3"/>
</svg>
