<svg width="14" height="14" viewBox="0 0 14 14" fill="none" xmlns="http://www.w3.org/2000/svg">
<path fill-rule="evenodd" clip-rule="evenodd" d="M0.863136 11.3834C0.378955 11.8676 0.378955 12.6526 0.863136 13.1368C1.34732 13.6209 2.13233 13.6209 2.61651 13.1368L7.00005 8.75322L11.3837 13.1369C11.8679 13.6211 12.6529 13.6211 13.1371 13.1369C13.6213 12.6527 13.6213 11.8677 13.1371 11.3835L8.75342 6.99984L13.1368 2.61651C13.6209 2.13233 13.6209 1.34732 13.1368 0.863136C12.6526 0.378955 11.8676 0.378954 11.3834 0.863135L7.00005 5.24647L2.61686 0.863289C2.13268 0.379108 1.34767 0.379108 0.863487 0.863289C0.379306 1.34747 0.379305 2.13248 0.863486 2.61666L5.24667 6.99984L0.863136 11.3834Z" fill="#484C51"/>
</svg>
