<svg width="183" height="1" viewBox="0 0 183 1" fill="none" xmlns="http://www.w3.org/2000/svg">
<path fill-rule="evenodd" clip-rule="evenodd" d="M0 1V0H5.08332V1H0ZM25.4167 1H15.25L15.25 0H25.4167V1ZM45.75 0H35.5833L35.5833 1H45.75L45.75 0ZM183 1H177.917V0H183V1ZM167.75 1H157.583V0H167.75V1ZM147.417 1H137.25L137.25 0H147.417V1ZM127.083 1H116.917L116.917 0H127.083L127.083 1ZM106.75 1H96.5833L96.5833 0H106.75V1ZM86.4167 1H76.25V0H86.4167L86.4167 1ZM66.0833 1H55.9167L55.9167 0H66.0833L66.0833 1Z" fill="#C4C4C4"/>
</svg>
