<svg width="34" height="34" viewBox="0 0 34 34" fill="none" xmlns="http://www.w3.org/2000/svg">
<circle cx="17" cy="17" r="16.5" stroke="#C0AF93"/>
<path d="M13.3048 16.1686C14.2939 18.1124 15.8874 19.7059 17.8313 20.695L19.3424 19.1839C19.5347 18.9916 19.8026 18.9367 20.043 19.0122C20.8123 19.2664 21.6365 19.4037 22.4951 19.4037C22.6773 19.4037 22.852 19.4761 22.9808 19.6049C23.1096 19.7337 23.182 19.9084 23.182 20.0906V22.4946C23.182 22.6768 23.1096 22.8515 22.9808 22.9803C22.852 23.1091 22.6773 23.1815 22.4951 23.1815C19.3983 23.1815 16.4282 21.9513 14.2384 19.7615C12.0486 17.5716 10.8184 14.6016 10.8184 11.5047C10.8184 11.3226 10.8907 11.1479 11.0195 11.0191C11.1484 10.8902 11.3231 10.8179 11.5052 10.8179H13.9093C14.0914 10.8179 14.2661 10.8902 14.395 11.0191C14.5238 11.1479 14.5961 11.3226 14.5961 11.5047C14.5961 12.3633 14.7335 13.1876 14.9877 13.9569C15.0632 14.1973 15.0083 14.4651 14.8159 14.6575L13.3048 16.1686Z" fill="#C0AF93"/>
</svg>
