<svg width="20" height="20" viewBox="0 0 20 20" fill="none" xmlns="http://www.w3.org/2000/svg">
<g clip-path="url(#clip0)">
<path d="M12.5 9.16667C12.0392 9.16667 11.6667 8.79333 11.6667 8.33333V5C11.6667 4.54083 11.2933 4.16667 10.8333 4.16667H8.33333V16.6667C8.33333 17.3783 7.88 18.0142 7.19833 18.2508L6.95167 18.3333H10.8333C11.2933 18.3333 11.6667 17.9592 11.6667 17.5V15C11.6667 14.54 12.0392 14.1667 12.5 14.1667C12.9608 14.1667 13.3333 14.54 13.3333 15V17.5C13.3333 18.8783 12.2117 20 10.8333 20H1.875C1.84333 20 1.81667 19.9858 1.78583 19.9817C1.74583 19.985 1.7075 20 1.66667 20C0.7475 20 0 19.2525 0 18.3333V3.33333C0 2.62167 0.453333 1.98583 1.135 1.74917L6.15 0.0775013C6.32 0.0250015 6.48917 0 6.66667 0C7.58583 0 8.33333 0.747501 8.33333 1.66667V2.5H10.8333C12.2117 2.5 13.3333 3.62167 13.3333 5V8.33333C13.3333 8.79333 12.9608 9.16667 12.5 9.16667Z" fill="#2A73BD"/>
<path d="M19.7555 12.2558L16.4222 15.5892C16.1839 15.8275 15.8255 15.8992 15.5138 15.77C15.203 15.6408 14.9997 15.3367 14.9997 15V12.5H11.6663C11.2063 12.5 10.833 12.1267 10.833 11.6667C10.833 11.2067 11.2063 10.8333 11.6663 10.8333H14.9997V8.33334C14.9997 7.99667 15.203 7.6925 15.5138 7.56334C15.8255 7.43417 16.1839 7.50584 16.4222 7.74417L19.7555 11.0775C20.0814 11.4033 20.0814 11.93 19.7555 12.2558Z" fill="#2A73BD"/>
</g>
<defs>
<clipPath id="clip0">
<rect width="20" height="20" fill="white" transform="matrix(1 0 0 -1 0 20)"/>
</clipPath>
</defs>
</svg>
