<svg width="97" height="96" viewBox="0 0 97 96" fill="none" xmlns="http://www.w3.org/2000/svg">
<g clip-path="url(#clip0)">
<circle opacity="0.12" cx="48.5" cy="48" r="48" fill="#27AE60"/>
<g clip-path="url(#clip1)">
<path d="M39.2254 50.4996C38.5803 49.9195 37.7398 49.6047 36.8723 49.6185C36.0049 49.6322 35.1747 49.9734 34.5483 50.5737C33.922 51.174 33.5457 51.9889 33.4951 52.8549C33.4445 53.721 33.7232 54.5742 34.2754 55.2434L41.9066 63.2527C42.2261 63.5879 42.61 63.8551 43.0354 64.0382C43.4607 64.2213 43.9186 64.3166 44.3816 64.3184C44.8422 64.3211 45.2986 64.2311 45.7238 64.054C46.149 63.8768 46.5342 63.6161 46.8566 63.2871L70.1629 39.2246C70.4789 38.8996 70.7278 38.5155 70.8953 38.0943C71.0629 37.6731 71.1458 37.223 71.1394 36.7697C71.1331 36.3165 71.0375 35.8689 70.8581 35.4526C70.6787 35.0363 70.4192 34.6594 70.0941 34.3434C69.7691 34.0274 69.385 33.7785 68.9638 33.6109C68.5426 33.4434 68.0925 33.3604 67.6393 33.3668C67.186 33.3732 66.7384 33.4688 66.3221 33.6481C65.9058 33.8275 65.5289 34.0871 65.2129 34.4121L44.416 55.9309L39.2254 50.4996Z" fill="#27AE60"/>
</g>
</g>
<defs>
<clipPath id="clip0">
<rect width="96" height="96" fill="white" transform="translate(0.5)"/>
</clipPath>
<clipPath id="clip1">
<rect width="56" height="56" fill="white" transform="translate(20.5 20)"/>
</clipPath>
</defs>
</svg>
