<svg width="15" height="16" viewBox="0 0 15 16" fill="none" xmlns="http://www.w3.org/2000/svg">
<path fill-rule="evenodd" clip-rule="evenodd" d="M1.49166 6.99839C0.938608 6.99839 0.490268 7.44673 0.490269 7.99978C0.490269 8.55284 0.93861 9.00118 1.49167 9.00118L6.49851 9.00118L6.49851 14.0082C6.49851 14.5613 6.94685 15.0096 7.49991 15.0096C8.05296 15.0096 8.5013 14.5613 8.5013 14.0082L8.5013 9.00118L13.5084 9.00119C14.0615 9.00119 14.5098 8.55285 14.5098 7.99979C14.5098 7.44674 14.0615 6.9984 13.5084 6.99839L8.5013 6.99839L8.5013 1.99148C8.5013 1.43843 8.05296 0.990086 7.4999 0.990085C6.94685 0.990085 6.49851 1.43843 6.49851 1.99148L6.49851 6.99839L1.49166 6.99839Z" fill="white"/>
</svg>
