<svg width="35" height="35" viewBox="0 0 35 35" fill="none" xmlns="http://www.w3.org/2000/svg">
<path fill-rule="evenodd" clip-rule="evenodd" d="M16.1386 24.3056C16.1386 25.0573 16.748 25.6667 17.4997 25.6667C18.2514 25.6667 18.8608 25.0573 18.8608 24.3056V18.8612H24.3052C25.0569 18.8612 25.6663 18.2518 25.6663 17.5C25.6663 16.7483 25.057 16.1389 24.3052 16.1389H18.8608V10.6945C18.8608 9.94276 18.2514 9.33337 17.4997 9.33337C16.748 9.33337 16.1386 9.94276 16.1386 10.6945V16.1389H10.6941C9.9424 16.1389 9.33301 16.7483 9.33301 17.5C9.33301 18.2518 9.9424 18.8612 10.6941 18.8612H16.1386V24.3056Z" fill="#222325"/>
</svg>
