<svg width="26" height="24" viewBox="0 0 26 24" fill="none" xmlns="http://www.w3.org/2000/svg">
<path fill-rule="evenodd" clip-rule="evenodd" d="M17.4083 18.3484L21.657 22.5916C22.1932 23.1361 23.0595 23.1361 23.5958 22.5916C24.1348 22.0485 24.1348 21.1699 23.5958 20.6254L19.3608 16.3904C20.557 14.7844 21.2679 12.7934 21.2679 10.6346C21.2679 5.31337 16.9545 1 11.6346 1C6.31337 1 2 5.31337 2 10.6346C2 15.9559 6.31337 20.2692 11.6346 20.2692C13.8003 20.2692 15.7995 19.5542 17.4083 18.3484ZM11.6333 17.5165C7.83413 17.5165 4.75275 14.4365 4.75275 10.6346C4.75275 6.83413 7.83275 3.75275 11.6346 3.75275C15.4351 3.75275 18.5151 6.83275 18.5151 10.6346C18.5151 14.4351 15.4351 17.5165 11.636 17.5165H11.6333Z" fill="white"/>
</svg>
